0
SECTION
2
HEADER
9
$INSUNITS
70
4
9
$ACADVER
1
AC1014
9
$HANDSEED
5
FFFF
0
ENDSEC
0
SECTION
2
TABLES
0
TABLE
2
VPORT
5
8
100
AcDbSymbolTable
0
ENDTAB
0
TABLE
2
LTYPE
5
5
100
AcDbSymbolTable
0
LTYPE
5
14
100
AcDbSymbolTableRecord
100
AcDbLinetypeTableRecord
2
BYBLOCK
70
0
0
LTYPE
5
15
100
AcDbSymbolTableRecord
100
AcDbLinetypeTableRecord
2
BYLAYER
70
0
0
LTYPE
5
16
100
AcDbSymbolTableRecord
100
AcDbLinetypeTableRecord
2
DASHED
70
0
3
Dashed __ __ __ __ __ __ __ __ __ __ __ __ __ _
72
65
73
2
40
0.75
49
0.5
74
0
49
-0.25
74
0
0
ENDTAB
0
TABLE
2
LAYER
5
2
100
AcDbSymbolTable
70
3
0
LAYER
5
50
100
AcDbSymbolTableRecord
100
AcDbLayerTableRecord
2
1
70
0
62
7
6
DASHED
0
LAYER
5
51
100
AcDbSymbolTableRecord
100
AcDbLayerTableRecord
2
0
70
0
62
7
6
CONTINUOUS
0
ENDTAB
0
TABLE
2
STYLE
5
3
100
AcDbSymbolTable
70
1
0
STYLE
5
11
100
AcDbSymbolTableRecord
100
AcDbTextStyleTableRecord
2
STANDARD
70
0
0
ENDTAB
0
TABLE
2
VIEW
5
6
100
AcDbSymbolTable
70
0
0
ENDTAB
0
TABLE
2
UCS
5
7
100
AcDbSymbolTable
70
0
0
ENDTAB
0
TABLE
2
APPID
5
9
100
AcDbSymbolTable
70
2
0
APPID
5
12
100
AcDbSymbolTableRecord
100
AcDbRegAppTableRecord
2
ACAD
70
0
0
ENDTAB
0
TABLE
2
DIMSTYLE
5
A
100
AcDbSymbolTable
70
1
0
ENDTAB
0
TABLE
2
BLOCK_RECORD
5
1
100
AcDbSymbolTable
70
1
0
BLOCK_RECORD
5
1F
100
AcDbSymbolTableRecord
100
AcDbBlockTableRecord
2
*MODEL_SPACE
0
BLOCK_RECORD
5
1B
100
AcDbSymbolTableRecord
100
AcDbBlockTableRecord
2
*PAPER_SPACE
0
ENDTAB
0
ENDSEC
0
SECTION
2
BLOCKS
0
BLOCK
5
20
100
AcDbEntity
100
AcDbBlockBegin
2
*MODEL_SPACE
0
ENDBLK
5
21
100
AcDbEntity
100
AcDbBlockEnd
0
BLOCK
5
1C
100
AcDbEntity
100
AcDbBlockBegin
2
*PAPER_SPACE
0
ENDBLK
5
1D
100
AcDbEntity
100
AcDbBlockEnd
0
ENDSEC
0
SECTION
2
ENTITIES
0
LWPOLYLINE
5
100
100
AcDbEntity
8
0
100
AcDbPolyline
90
8
70
1
43
0.0
10
-8.3499999046325843
20
-53.35000133514405
42
0.41421356237309293
10
-6.349999904632579
20
-51.350001335144043
10
-6.3499999046325897
20
-8.3500013351440394
42
0.4142135623730957
10
-8.3499999046325897
20
-6.3500013351440341
10
-31.34999990463259
20
-6.3500013351440359
42
0.41421356237309553
10
-33.349999904632597
20
-8.3500013351440359
10
-33.34999990463259
20
-51.350001335144043
42
0.41421356237309243
10
-31.349999904632597
20
-53.35000133514405
0
LWPOLYLINE
5
101
100
AcDbEntity
8
0
100
AcDbPolyline
90
4
70
1
43
0.0
10
-22.34999990463259
20
-44.450001335144037
10
-22.34999990463259
20
-41.450001335144037
10
-10.349999904632588
20
-41.450001335144044
10
-10.349999904632588
20
-44.450001335144044
0
LWPOLYLINE
5
102
100
AcDbEntity
8
0
100
AcDbPolyline
90
4
70
1
43
0.0
10
-10.349999904632588
20
-18.250001335144038
10
-22.34999990463259
20
-18.250001335144038
10
-22.34999990463259
20
-15.250001335144036
10
-10.349999904632588
20
-15.250001335144034
0
CIRCLE
5
103
100
AcDbEntity
8
0
100
AcDbCircle
10
-27.849999904632597
20
-16.750001335144038
30
0
40
1.5000000000000004
210
0
220
-0
230
1
0
CIRCLE
5
104
100
AcDbEntity
8
0
100
AcDbCircle
10
-27.84999990463259
20
-42.950001335144051
30
0
40
1.5000000000000004
210
0
220
-0
230
1
0
CIRCLE
5
105
100
AcDbEntity
8
0
100
AcDbCircle
10
-19.84999990463259
20
-48.850001335144043
30
0
40
1.5000000000000004
210
0
220
-0
230
1
0
CIRCLE
5
106
100
AcDbEntity
8
0
100
AcDbCircle
10
-19.84999990463259
20
-10.850001335144032
30
0
40
1.5000000000000004
210
0
220
-0
230
1
0
LWPOLYLINE
5
107
100
AcDbEntity
8
0
100
AcDbPolyline
90
26
70
1
43
0.0
10
-8.3499964714056123
20
-350.80005588531498
42
0.41421356237307422
10
-6.3499964714055839
20
-348.80005588531498
10
-6.3499964714056221
20
-337.80005588531492
10
-10.349996471404861
20
-337.80005588531492
10
-10.349996471405046
20
-340.80005588531492
10
-8.9499964714049156
20
-340.80005588531492
10
-8.9499964714051181
20
-343.80005588531492
10
-10.349996471405099
20
-343.80005588531492
10
-10.349996471405179
20
-346.80005588531486
10
-13.349996471405177
20
-346.80005588531492
10
-13.349996471405079
20
-343.80005588531498
10
-14.749996471405138
20
-343.80005588531492
10
-14.749996471404952
20
-340.80005588531492
10
-13.349996471404502
20
-340.80005588531492
10
-13.349996471405044
20
-337.80005588531492
10
-17.449996471405029
20
-337.80005588531492
10
-17.449996471405008
20
-334.80005588531492
10
-22.449996471405022
20
-334.80005588531492
10
-22.449996471405029
20
-337.80005588531492
10
-24.049996471405017
20
-337.80005588531492
10
-24.049996471404995
20
-375.80005588531492
42
0.41421356237310542
10
-22.049996471404995
20
-377.80005588531503
10
-17.849996471404992
20
-377.80005588531492
42
0.41421356237309537
10
-15.849996471404964
20
-375.80005588531492
10
-15.849996471405053
20
-352.80005588531492
42
-0.41421356237309631
10
-13.849996471405015
20
-350.80005588531492
0
CIRCLE
5
108
100
AcDbEntity
8
0
100
AcDbCircle
10
-19.949996471405019
20
-373.80005588531498
30
0
40
1.0000000000000004
210
0
220
-0
230
1
0
LWPOLYLINE
5
109
100
AcDbEntity
8
0
100
AcDbPolyline
90
22
70
1
43
0.0
10
-29.549999904632543
20
-326.45005588531495
42
0.41421356237307422
10
-27.549999904632543
20
-328.45005588531501
10
-6.3499999046325462
20
-328.4500558853149
10
-6.3499999046325515
20
-323.75005588531502
10
-24.849999904632547
20
-323.75005588531496
10
-24.849999904632543
20
-300.55005588531492
10
-6.3499999046325417
20
-300.55005588531492
10
-6.3499999046325337
20
-294.45005588531495
10
-12.349999904632536
20
-294.45005588531495
10
-12.34999990463254
20
-295.85005588531493
10
-15.349999904632538
20
-295.85005588531493
10
-15.349999904632538
20
-294.4500558853149
10
-18.34999990463254
20
-294.45005588531495
10
-18.349999904632536
20
-291.4500558853149
10
-15.349999904632535
20
-291.45005588531495
10
-15.349999904632538
20
-290.05005588531492
10
-12.349999904632536
20
-290.05005588531492
10
-12.349999904632536
20
-291.45005588531495
10
-6.3499999046325346
20
-291.45005588531495
10
-6.3499999046325337
20
-287.4500558853149
10
-27.549999904632536
20
-287.4500558853149
42
0.4142135623730937
10
-29.549999904632518
20
-289.4500558853149
0
CIRCLE
5
110
100
AcDbEntity
8
0
100
AcDbCircle
10
-18.599999904632533
20
-298.35005588531493
30
0
40
1
210
0
220
-0
230
1
0
CIRCLE
5
111
100
AcDbEntity
8
0
100
AcDbCircle
10
-18.599999904632551
20
-325.9500558853149
30
0
40
1
210
0
220
-0
230
1
0
LWPOLYLINE
5
112
100
AcDbEntity
8
0
100
AcDbPolyline
90
12
70
1
43
0.0
10
-13.849996471405069
20
-238.45003757476806
42
0.41421356237309503
10
-15.849996471405067
20
-240.45003757476806
10
-15.849996471405056
20
-281.10003757476807
10
-24.049996471405059
20
-281.10003757476807
10
-24.049996471405066
20
-221.10003757476804
10
-15.849996471405081
20
-221.10003757476804
10
-15.849996471405117
20
-227.45003757476806
42
0.41421356237309598
10
-13.849996471405071
20
-229.45003757476803
10
-8.3499964714050705
20
-229.45003757476803
42
-0.41421356237309437
10
-6.3499964714050705
20
-231.45003757476803
10
-6.3499964714050474
20
-236.45003757476803
42
-0.41421356237309404
10
-8.3499964714050687
20
-238.45003757476806
0
CIRCLE
5
113
100
AcDbEntity
8
0
100
AcDbCircle
10
-21.949996471405065
20
-229.30003757476806
30
0
40
1.0000000000000004
210
0
220
-0
230
1
0
CIRCLE
5
114
100
AcDbEntity
8
0
100
AcDbCircle
10
-17.949996471405033
20
-275.80003757476806
30
0
40
1.0000000000000004
210
0
220
-0
230
1
0
LWPOLYLINE
5
115
100
AcDbEntity
8
0
100
AcDbPolyline
90
4
70
1
43
0.0
10
-17.449996471405072
20
-232.45003757476806
10
-17.449996471405068
20
-235.45003757476806
10
-22.449996471405072
20
-235.45003757476806
10
-22.449996471405072
20
-232.45003757476806
0
CIRCLE
5
116
100
AcDbEntity
8
0
100
AcDbCircle
10
-11.849996471405067
20
-233.95003757476803
30
0
40
1.5000000000000004
210
0
220
-0
230
1
0
LWPOLYLINE
5
117
100
AcDbEntity
8
0
100
AcDbPolyline
90
22
70
1
43
0.0
10
-6.3499999046325497
20
-189.75003147125247
42
0.41421356237309404
10
-8.3499999046325506
20
-187.75003147125247
10
-29.349999904632583
20
-187.75003147125244
10
-29.349999904632583
20
-191.75003147125241
10
-32.349999904632575
20
-191.75003147125244
10
-32.349999904632583
20
-203.7500314712525
10
-29.349999904632575
20
-203.7500314712525
10
-29.349999904632575
20
-207.75003147125247
10
-26.349999904632572
20
-207.75003147125244
10
-26.349999904632575
20
-206.35003147125244
10
-23.349999904632575
20
-206.35003147125246
10
-23.349999904632579
20
-207.75003147125247
10
-20.349999904632583
20
-207.75003147125244
10
-20.349999904632568
20
-210.75003147125244
10
-23.349999904632568
20
-210.75003147125244
10
-23.349999904632568
20
-212.15003147125245
10
-26.349999904632572
20
-212.15003147125245
10
-26.349999904632575
20
-210.75003147125244
10
-29.349999904632579
20
-210.75003147125244
10
-29.349999904632575
20
-214.75003147125244
10
-8.349999904632547
20
-214.75003147125247
42
0.41421356237309404
10
-6.3499999046325613
20
-212.75003147125244
0
LWPOLYLINE
5
118
100
AcDbEntity
8
0
100
AcDbPolyline
90
4
70
1
43
0.0
10
-10.549999904632571
20
-191.50003147125244
10
-10.549999904632569
20
-204.00003147125244
10
-12.94999990463258
20
-204.00003147125244
10
-12.949999904632584
20
-191.50003147125244
0
LWPOLYLINE
5
119
100
AcDbEntity
8
0
100
AcDbPolyline
90
4
70
1
43
0.0
10
-23.349999904632579
20
-201.75003147125244
10
-27.349999904632583
20
-201.75003147125244
10
-27.349999904632575
20
-193.75003147125244
10
-23.349999904632568
20
-193.75003147125244
0
LWPOLYLINE
5
120
100
AcDbEntity
8
0
100
AcDbPolyline
90
22
70
1
43
0.0
10
-6.3499999046325275
20
-156.40001010894775
42
0.41421356237309537
10
-8.3499999046325275
20
-154.40001010894778
10
-29.349999904632558
20
-154.40001010894775
10
-29.349999904632558
20
-158.40001010894775
10
-32.349999904632554
20
-158.40001010894775
10
-32.349999904632554
20
-170.40001010894775
10
-29.349999904632558
20
-170.40001010894775
10
-29.349999904632547
20
-174.40001010894775
10
-26.349999904632547
20
-174.40001010894775
10
-26.349999904632551
20
-173.00001010894775
10
-23.349999904632547
20
-173.00001010894775
10
-23.349999904632554
20
-174.40001010894775
10
-20.349999904632561
20
-174.40001010894775
10
-20.349999904632551
20
-177.40001010894775
10
-23.349999904632543
20
-177.40001010894775
10
-23.349999904632554
20
-178.80001010894776
10
-26.349999904632554
20
-178.80001010894776
10
-26.349999904632551
20
-177.40001010894775
10
-29.349999904632554
20
-177.40001010894775
10
-29.349999904632547
20
-181.40001010894775
10
-8.3499999046325222
20
-181.40001010894775
42
0.41421356237309664
10
-6.3499999046325168
20
-179.40001010894775
0
LWPOLYLINE
5
121
100
AcDbEntity
8
0
100
AcDbPolyline
90
4
70
1
43
0.0
10
-10.549999904632546
20
-158.15001010894775
10
-10.549999904632543
20
-170.65001010894775
10
-12.949999904632556
20
-170.65001010894775
10
-12.949999904632559
20
-158.15001010894775
0
LWPOLYLINE
5
122
100
AcDbEntity
8
0
100
AcDbPolyline
90
4
70
1
43
0.0
10
-23.349999904632554
20
-168.40001010894775
10
-27.349999904632554
20
-168.40001010894775
10
-27.349999904632547
20
-160.40001010894773
10
-23.349999904632554
20
-160.40001010894773
0
LWPOLYLINE
5
123
100
AcDbEntity
8
0
100
AcDbPolyline
90
16
70
1
43
0.0
10
-27.349999523162829
20
-107.0499994277954
42
0.41421356237309503
10
-29.349999523162822
20
-109.0499994277954
10
-29.349999523162836
20
-146.0499994277954
42
0.41421356237309764
10
-27.349999523162847
20
-148.04999942779543
10
-15.949999523162838
20
-148.0499994277954
10
-15.94999952316283
20
-134.9499994277954
10
-12.94999952316283
20
-134.9499994277954
10
-12.949999523162834
20
-148.0499994277954
10
-8.3499995231628432
20
-148.0499994277954
42
0.41421356237309553
10
-6.3499995231628468
20
-146.0499994277954
10
-6.3499995231628272
20
-109.0499994277954
42
0.41421356237309537
10
-8.3499995231628272
20
-107.0499994277954
10
-12.949999523162827
20
-107.0499994277954
10
-12.949999523162827
20
-111.74999942779542
10
-15.94999952316283
20
-111.74999942779542
10
-15.94999952316283
20
-107.0499994277954
0
CIRCLE
5
124
100
AcDbEntity
8
0
100
AcDbCircle
10
-19.349999523162829
20
-119.34999942779541
30
0
40
3.0000000000000004
210
-0
220
0
230
1
0
LWPOLYLINE
5
125
100
AcDbEntity
8
0
100
AcDbPolyline
90
16
70
1
43
0.0
10
-6.3500002861023228
20
-61.700000953674312
42
0.41421356237309309
10
-8.3500002861023237
20
-59.700000953674319
10
-19.750000286102328
20
-59.700000953674319
10
-19.750000286102328
20
-64.400000953674322
10
-22.750000286102328
20
-64.400000953674322
10
-22.750000286102328
20
-59.700000953674305
10
-27.350000286102329
20
-59.700000953674319
42
0.41421356237309243
10
-29.350000286102329
20
-61.700000953674312
10
-29.350000286102325
20
-98.700000953674319
42
0.41421356237309503
10
-27.350000286102318
20
-100.70000095367433
10
-22.750000286102321
20
-100.70000095367432
10
-22.750000286102328
20
-87.600000953674325
10
-19.750000286102328
20
-87.600000953674325
10
-19.750000286102321
20
-100.70000095367433
10
-8.3500002861023113
20
-100.70000095367433
42
0.41421356237309503
10
-6.3500002861023175
20
-98.700000953674319
0
CIRCLE
5
126
100
AcDbEntity
8
0
100
AcDbCircle
10
-16.350000286102325
20
-72.000000953674316
30
0
40
1.0000000000000004
210
0
220
-0
230
1
0
ENDSEC
0
SECTION
2
OBJECTS
0
DICTIONARY
5
C
100
AcDbDictionary
3
ACAD_GROUP
350
D
3
ACAD_MLINESTYLE
350
17
0
DICTIONARY
5
D
100
AcDbDictionary
0
DICTIONARY
5
1A
330
C
100
AcDbDictionary
0
DICTIONARY
5
17
100
AcDbDictionary
0
ENDSEC
0
EOF
