0
SECTION
2
HEADER
9
$INSUNITS
70
4
9
$ACADVER
1
AC1014
9
$HANDSEED
5
FFFF
0
ENDSEC
0
SECTION
2
TABLES
0
TABLE
2
VPORT
5
8
100
AcDbSymbolTable
0
ENDTAB
0
TABLE
2
LTYPE
5
5
100
AcDbSymbolTable
0
LTYPE
5
14
100
AcDbSymbolTableRecord
100
AcDbLinetypeTableRecord
2
BYBLOCK
70
0
0
LTYPE
5
15
100
AcDbSymbolTableRecord
100
AcDbLinetypeTableRecord
2
BYLAYER
70
0
0
LTYPE
5
16
100
AcDbSymbolTableRecord
100
AcDbLinetypeTableRecord
2
DASHED
70
0
3
Dashed __ __ __ __ __ __ __ __ __ __ __ __ __ _
72
65
73
2
40
0.75
49
0.5
74
0
49
-0.25
74
0
0
ENDTAB
0
TABLE
2
LAYER
5
2
100
AcDbSymbolTable
70
3
0
LAYER
5
50
100
AcDbSymbolTableRecord
100
AcDbLayerTableRecord
2
1
70
0
62
7
6
DASHED
0
LAYER
5
51
100
AcDbSymbolTableRecord
100
AcDbLayerTableRecord
2
0
70
0
62
7
6
CONTINUOUS
0
ENDTAB
0
TABLE
2
STYLE
5
3
100
AcDbSymbolTable
70
1
0
STYLE
5
11
100
AcDbSymbolTableRecord
100
AcDbTextStyleTableRecord
2
STANDARD
70
0
0
ENDTAB
0
TABLE
2
VIEW
5
6
100
AcDbSymbolTable
70
0
0
ENDTAB
0
TABLE
2
UCS
5
7
100
AcDbSymbolTable
70
0
0
ENDTAB
0
TABLE
2
APPID
5
9
100
AcDbSymbolTable
70
2
0
APPID
5
12
100
AcDbSymbolTableRecord
100
AcDbRegAppTableRecord
2
ACAD
70
0
0
ENDTAB
0
TABLE
2
DIMSTYLE
5
A
100
AcDbSymbolTable
70
1
0
ENDTAB
0
TABLE
2
BLOCK_RECORD
5
1
100
AcDbSymbolTable
70
1
0
BLOCK_RECORD
5
1F
100
AcDbSymbolTableRecord
100
AcDbBlockTableRecord
2
*MODEL_SPACE
0
BLOCK_RECORD
5
1B
100
AcDbSymbolTableRecord
100
AcDbBlockTableRecord
2
*PAPER_SPACE
0
ENDTAB
0
ENDSEC
0
SECTION
2
BLOCKS
0
BLOCK
5
20
100
AcDbEntity
100
AcDbBlockBegin
2
*MODEL_SPACE
0
ENDBLK
5
21
100
AcDbEntity
100
AcDbBlockEnd
0
BLOCK
5
1C
100
AcDbEntity
100
AcDbBlockBegin
2
*PAPER_SPACE
0
ENDBLK
5
1D
100
AcDbEntity
100
AcDbBlockEnd
0
ENDSEC
0
SECTION
2
ENTITIES
0
LWPOLYLINE
5
100
100
AcDbEntity
8
0
100
AcDbPolyline
90
36
70
1
43
0.0
10
47.796999999990753
20
-143.84301935045937
10
50.796999999990781
20
-143.84301935045937
10
50.796999999990781
20
-137.8430193504594
10
47.796999999990739
20
-137.84301935045937
10
47.796999999990732
20
-139.24301935045938
10
44.796999999990739
20
-139.24301935045941
10
44.796999999990746
20
-137.84301935045937
10
41.796999999990739
20
-137.84301935045937
10
41.796999999990739
20
-134.8430193504594
10
44.796999999990739
20
-134.84301935045943
10
44.796999999990739
20
-133.44301935045939
10
47.796999999990739
20
-133.44301935045937
10
47.796999999990739
20
-134.8430193504594
10
50.796999999990781
20
-134.84301935045943
10
50.796999999990781
20
-128.84301935045943
10
47.796999999990746
20
-128.84301935045937
10
47.796999999990753
20
-126.34301935045951
10
-32.203001976001062
20
-126.34301935045934
10
-32.203001976001062
20
-128.84301935045951
10
-35.203115239002678
20
-128.84301935045949
10
-35.203115239001264
20
-134.84301935046176
10
-32.203115239001221
20
-134.84301935046159
10
-32.203115239001299
20
-133.44301935046155
10
-29.203115239001306
20
-133.44301935046138
10
-29.203115239001214
20
-134.84301935046139
10
-26.203115239001214
20
-134.84301935046125
10
-26.203115239001221
20
-137.84301935045758
10
-29.203115239001228
20
-137.84301935045747
10
-29.203115239001292
20
-139.2430193504575
10
-32.203115239001306
20
-139.24301935045733
10
-32.203115239001221
20
-137.8430193504573
10
-35.203115239001256
20
-137.84301935045718
10
-35.20311523900294
20
-143.84301935045943
10
-32.203001976001026
20
-143.84301935045943
10
-32.203001976001033
20
-146.34301935045957
10
47.79699999999076
20
-146.34301935045929
0
ENDSEC
0
SECTION
2
OBJECTS
0
DICTIONARY
5
C
100
AcDbDictionary
3
ACAD_GROUP
350
D
3
ACAD_MLINESTYLE
350
17
0
DICTIONARY
5
D
100
AcDbDictionary
0
DICTIONARY
5
1A
330
C
100
AcDbDictionary
0
DICTIONARY
5
17
100
AcDbDictionary
0
ENDSEC
0
EOF
