0
SECTION
2
HEADER
9
$INSUNITS
70
4
9
$ACADVER
1
AC1014
9
$HANDSEED
5
FFFF
0
ENDSEC
0
SECTION
2
TABLES
0
TABLE
2
VPORT
5
8
100
AcDbSymbolTable
0
ENDTAB
0
TABLE
2
LTYPE
5
5
100
AcDbSymbolTable
0
LTYPE
5
14
100
AcDbSymbolTableRecord
100
AcDbLinetypeTableRecord
2
BYBLOCK
70
0
0
LTYPE
5
15
100
AcDbSymbolTableRecord
100
AcDbLinetypeTableRecord
2
BYLAYER
70
0
0
LTYPE
5
16
100
AcDbSymbolTableRecord
100
AcDbLinetypeTableRecord
2
DASHED
70
0
3
Dashed __ __ __ __ __ __ __ __ __ __ __ __ __ _
72
65
73
2
40
0.75
49
0.5
74
0
49
-0.25
74
0
0
ENDTAB
0
TABLE
2
LAYER
5
2
100
AcDbSymbolTable
70
3
0
LAYER
5
50
100
AcDbSymbolTableRecord
100
AcDbLayerTableRecord
2
1
70
0
62
7
6
DASHED
0
LAYER
5
51
100
AcDbSymbolTableRecord
100
AcDbLayerTableRecord
2
0
70
0
62
7
6
CONTINUOUS
0
ENDTAB
0
TABLE
2
STYLE
5
3
100
AcDbSymbolTable
70
1
0
STYLE
5
11
100
AcDbSymbolTableRecord
100
AcDbTextStyleTableRecord
2
STANDARD
70
0
0
ENDTAB
0
TABLE
2
VIEW
5
6
100
AcDbSymbolTable
70
0
0
ENDTAB
0
TABLE
2
UCS
5
7
100
AcDbSymbolTable
70
0
0
ENDTAB
0
TABLE
2
APPID
5
9
100
AcDbSymbolTable
70
2
0
APPID
5
12
100
AcDbSymbolTableRecord
100
AcDbRegAppTableRecord
2
ACAD
70
0
0
ENDTAB
0
TABLE
2
DIMSTYLE
5
A
100
AcDbSymbolTable
70
1
0
ENDTAB
0
TABLE
2
BLOCK_RECORD
5
1
100
AcDbSymbolTable
70
1
0
BLOCK_RECORD
5
1F
100
AcDbSymbolTableRecord
100
AcDbBlockTableRecord
2
*MODEL_SPACE
0
BLOCK_RECORD
5
1B
100
AcDbSymbolTableRecord
100
AcDbBlockTableRecord
2
*PAPER_SPACE
0
ENDTAB
0
ENDSEC
0
SECTION
2
BLOCKS
0
BLOCK
5
20
100
AcDbEntity
100
AcDbBlockBegin
2
*MODEL_SPACE
0
ENDBLK
5
21
100
AcDbEntity
100
AcDbBlockEnd
0
BLOCK
5
1C
100
AcDbEntity
100
AcDbBlockBegin
2
*PAPER_SPACE
0
ENDBLK
5
1D
100
AcDbEntity
100
AcDbBlockEnd
0
ENDSEC
0
SECTION
2
ENTITIES
0
LWPOLYLINE
5
100
100
AcDbEntity
8
0
100
AcDbPolyline
90
34
70
1
43
0.0
10
205.88082830370593
20
26.93192040995131
42
0.41421356237309215
10
200.88082830370593
20
31.931920409951331
10
172.88082830370593
20
31.931920409951307
10
172.88082830370593
20
19.631920409951604
10
175.88082830370615
20
19.631920409951601
10
175.88082830370615
20
21.031920409951297
10
178.8808283037057
20
21.031920409951304
10
178.8808283037057
20
19.631920409951604
10
181.88082830370573
20
19.631920409951601
10
181.88082830370573
20
16.631920409951004
10
178.88082830370567
20
16.631920409951004
10
178.88082830370567
20
15.231920409951309
10
175.88082830370567
20
15.231920409951309
10
175.8808283037057
20
16.631920409951004
10
172.88082830370595
20
16.631920409951004
10
172.88082830370595
20
7.1319204099513005
10
195.88082830370595
20
7.1319204099513005
10
195.88082830370593
20
-33.2680795900487
10
172.88082830370595
20
-33.2680795900487
10
172.88082830370595
20
-46.768079590048607
10
175.8808283037057
20
-46.768079590048607
10
175.8808283037057
20
-45.368079590048602
10
178.8808283037057
20
-45.368079590048602
10
178.8808283037057
20
-46.768079590048607
10
181.88082830370575
20
-46.768079590048607
10
181.88082830370575
20
-49.768079590048593
10
178.8808283037057
20
-49.768079590048593
10
178.8808283037057
20
-51.168079590048599
10
175.88082830370621
20
-51.168079590048599
10
175.88082830370621
20
-49.768079590048593
10
172.88082830370595
20
-49.768079590048593
10
172.88082830370595
20
-58.068079590048598
10
200.88082830370593
20
-58.068079590048598
42
0.41421356237309293
10
205.88082830370587
20
-53.068079590048598
0
CIRCLE
5
101
100
AcDbEntity
8
0
100
AcDbCircle
10
190.88082830370593
20
11.181920409951303
30
0
40
2.1000000000000001
210
-7.7150846546578106e-31
220
-2.4651903288156728e-32
230
1
0
CIRCLE
5
102
100
AcDbEntity
8
0
100
AcDbCircle
10
190.88082830370595
20
-37.31807959004869
30
0
40
2.1000000000000001
210
-7.7150846546578106e-31
220
-2.4651903288156728e-32
230
1
0
CIRCLE
5
103
100
AcDbEntity
8
0
100
AcDbCircle
10
180.88082830370593
20
11.181920409951303
30
8.8817841970012523e-15
40
2.1000000000000001
210
-7.7150846546578106e-31
220
-2.4651903288156728e-32
230
1
0
CIRCLE
5
104
100
AcDbEntity
8
0
100
AcDbCircle
10
180.88082830370595
20
-37.31807959004869
30
8.8817841970012523e-15
40
2.1000000000000001
210
-7.7150846546578106e-31
220
-2.4651903288156728e-32
230
1
0
ENDSEC
0
SECTION
2
OBJECTS
0
DICTIONARY
5
C
100
AcDbDictionary
3
ACAD_GROUP
350
D
3
ACAD_MLINESTYLE
350
17
0
DICTIONARY
5
D
100
AcDbDictionary
0
DICTIONARY
5
1A
330
C
100
AcDbDictionary
0
DICTIONARY
5
17
100
AcDbDictionary
0
ENDSEC
0
EOF
