0
SECTION
2
HEADER
9
$INSUNITS
70
4
9
$ACADVER
1
AC1014
9
$HANDSEED
5
FFFF
0
ENDSEC
0
SECTION
2
TABLES
0
TABLE
2
VPORT
5
8
100
AcDbSymbolTable
0
ENDTAB
0
TABLE
2
LTYPE
5
5
100
AcDbSymbolTable
0
LTYPE
5
14
100
AcDbSymbolTableRecord
100
AcDbLinetypeTableRecord
2
BYBLOCK
70
0
0
LTYPE
5
15
100
AcDbSymbolTableRecord
100
AcDbLinetypeTableRecord
2
BYLAYER
70
0
0
LTYPE
5
16
100
AcDbSymbolTableRecord
100
AcDbLinetypeTableRecord
2
DASHED
70
0
3
Dashed __ __ __ __ __ __ __ __ __ __ __ __ __ _
72
65
73
2
40
0.75
49
0.5
74
0
49
-0.25
74
0
0
ENDTAB
0
TABLE
2
LAYER
5
2
100
AcDbSymbolTable
70
3
0
LAYER
5
50
100
AcDbSymbolTableRecord
100
AcDbLayerTableRecord
2
1
70
0
62
7
6
DASHED
0
LAYER
5
51
100
AcDbSymbolTableRecord
100
AcDbLayerTableRecord
2
0
70
0
62
7
6
CONTINUOUS
0
ENDTAB
0
TABLE
2
STYLE
5
3
100
AcDbSymbolTable
70
1
0
STYLE
5
11
100
AcDbSymbolTableRecord
100
AcDbTextStyleTableRecord
2
STANDARD
70
0
0
ENDTAB
0
TABLE
2
VIEW
5
6
100
AcDbSymbolTable
70
0
0
ENDTAB
0
TABLE
2
UCS
5
7
100
AcDbSymbolTable
70
0
0
ENDTAB
0
TABLE
2
APPID
5
9
100
AcDbSymbolTable
70
2
0
APPID
5
12
100
AcDbSymbolTableRecord
100
AcDbRegAppTableRecord
2
ACAD
70
0
0
ENDTAB
0
TABLE
2
DIMSTYLE
5
A
100
AcDbSymbolTable
70
1
0
ENDTAB
0
TABLE
2
BLOCK_RECORD
5
1
100
AcDbSymbolTable
70
1
0
BLOCK_RECORD
5
1F
100
AcDbSymbolTableRecord
100
AcDbBlockTableRecord
2
*MODEL_SPACE
0
BLOCK_RECORD
5
1B
100
AcDbSymbolTableRecord
100
AcDbBlockTableRecord
2
*PAPER_SPACE
0
ENDTAB
0
ENDSEC
0
SECTION
2
BLOCKS
0
BLOCK
5
20
100
AcDbEntity
100
AcDbBlockBegin
2
*MODEL_SPACE
0
ENDBLK
5
21
100
AcDbEntity
100
AcDbBlockEnd
0
BLOCK
5
1C
100
AcDbEntity
100
AcDbBlockBegin
2
*PAPER_SPACE
0
ENDBLK
5
1D
100
AcDbEntity
100
AcDbBlockEnd
0
ENDSEC
0
SECTION
2
ENTITIES
0
CIRCLE
5
100
100
AcDbEntity
8
0
100
AcDbCircle
10
-218.9807891845723
20
-150.95518112182617
30
4.4408920985006262e-15
40
2.1000000000000005
210
7.6138540651043936e-32
220
-5.5723423331639828e-47
230
1
0
LWPOLYLINE
5
101
100
AcDbEntity
8
0
100
AcDbPolyline
90
4
70
1
43
0.0
10
-209.78887377696077
20
-170.69589268651941
10
-197.2888737769608
20
-149.04525759190847
10
-194.69079756560745
20
-150.54525759190849
10
-207.19079756560743
20
-172.19589268651941
0
LWPOLYLINE
5
102
100
AcDbEntity
8
0
100
AcDbPolyline
90
4
70
1
43
0.0
10
-240.67270459218324
20
-149.04525759190844
10
-228.17270459218324
20
-170.69589268651939
10
-230.77078080353655
20
-172.19589268651936
10
-243.27078080353655
20
-150.54525759190847
0
LWPOLYLINE
5
103
100
AcDbEntity
8
0
100
AcDbPolyline
90
4
70
1
43
0.0
10
-231.4807891845719
20
-133.12439308705058
10
-231.4807891845719
20
-130.12439308705058
10
-206.48078918457196
20
-130.12439308705058
10
-206.48078918457196
20
-133.12439308705058
0
LWPOLYLINE
5
104
100
AcDbEntity
8
0
100
AcDbPolyline
90
60
70
1
43
0.0
10
-252.74802213948897
20
-148.78016816120478
42
0.41421356237313767
10
-253.43103484138118
20
-148.96318086309697
10
-254.43677915968681
20
-150.70518112182614
42
0.26794919243117615
10
-254.43677915968681
20
-151.20518112182612
10
-253.43103484138118
20
-152.94718138055524
42
0.41421356237311591
10
-252.74802213948897
20
-153.13019408244745
10
-251.88199673570409
20
-152.63019408244719
42
-0.41421356237310408
10
-251.19898403381188
20
-152.8132067843394
10
-236.69898403381211
20
-177.92794349408823
42
-0.41421356237312346
10
-236.88199673570432
20
-178.61095619598046
10
-237.748022139489
20
-179.11095619598061
42
0.41421356237312346
10
-237.93103484138115
20
-179.79396889787282
10
-236.92529052307572
20
-181.53596915660177
42
0.2679491924311807
10
-236.49227782118345
20
-181.78596915660177
10
-234.48078918457207
20
-181.78596915660177
42
0.41421356237313667
10
-233.98078918457205
20
-181.28596915660177
10
-233.98078918457207
20
-180.28596915660148
42
-0.41421356237309503
10
-233.48078918457207
20
-179.78596915660148
10
-204.4807891845721
20
-179.78596915660174
42
-0.41421356237309503
10
-203.98078918457207
20
-180.28596915660174
10
-203.98078918457207
20
-181.28596915660179
42
0.41421356237313667
10
-203.48078918457213
20
-181.78596915660179
10
-201.46930054796118
20
-181.78596915660179
42
0.26794919243122317
10
-201.03628784606897
20
-181.53596915660177
10
-200.03054352776329
20
-179.79396889787265
42
0.41421356237311302
10
-200.21355622965552
20
-179.11095619598041
10
-201.07958163343991
20
-178.61095619598046
42
-0.41421356237309503
10
-201.26259433533215
20
-177.92794349408825
10
-186.76259433533193
20
-152.81320678433963
42
-0.41421356237309503
10
-186.07958163343972
20
-152.63019408244742
10
-185.21355622965555
20
-153.13019408244725
42
0.41421356237314155
10
-184.53054352776326
20
-152.94718138055507
10
-183.52479920945783
20
-151.2051811218262
42
0.26794919243110127
10
-183.52479920945785
20
-150.70518112182623
10
-184.53054352776331
20
-148.96318086309739
42
0.41421356237307183
10
-185.21355622965552
20
-148.78016816120518
10
-186.07958163343989
20
-149.28016816120515
42
-0.41421356237309126
10
-186.76259433533207
20
-149.09715545931294
10
-201.26259433533187
20
-123.98241874956405
42
-0.41421356237310408
10
-201.07958163343963
20
-123.29940604767182
10
-200.21355622965547
20
-122.79940604767199
42
0.4142135623731325
10
-200.03054352776326
20
-122.11639334577978
10
-201.03628784606889
20
-120.37439308705062
42
0.26794919243112869
10
-201.46930054796113
20
-120.12439308705062
10
-203.48078918457196
20
-120.12439308705063
42
0.41421356237310542
10
-203.98078918457196
20
-120.62439308705063
10
-203.98078918457196
20
-121.62439308705078
42
-0.41421356237310542
10
-204.48078918457196
20
-122.12439308705081
10
-233.48078918457193
20
-122.12439308705056
42
-0.41421356237309503
10
-233.98078918457196
20
-121.62439308705055
10
-233.98078918457196
20
-120.62439308705059
42
0.41421356237313667
10
-234.48078918457196
20
-120.12439308705058
10
-236.49227782118342
20
-120.12439308705058
42
0.26794919243112042
10
-236.92529052307563
20
-120.37439308705058
10
-237.93103484138112
20
-122.1163933457794
42
0.4142135623731325
10
-237.74802213948888
20
-122.79940604767162
10
-236.88199673570409
20
-123.29940604767185
42
-0.41421356237310925
10
-236.69898403381183
20
-123.98241874956409
10
-251.19898403381202
20
-149.09715545931266
42
-0.41421356237309648
10
-251.88199673570423
20
-149.2801681612049
0
ENDSEC
0
SECTION
2
OBJECTS
0
DICTIONARY
5
C
100
AcDbDictionary
3
ACAD_GROUP
350
D
3
ACAD_MLINESTYLE
350
17
0
DICTIONARY
5
D
100
AcDbDictionary
0
DICTIONARY
5
1A
330
C
100
AcDbDictionary
0
DICTIONARY
5
17
100
AcDbDictionary
0
ENDSEC
0
EOF
