0
SECTION
2
HEADER
9
$INSUNITS
70
4
9
$ACADVER
1
AC1014
9
$HANDSEED
5
FFFF
0
ENDSEC
0
SECTION
2
TABLES
0
TABLE
2
VPORT
5
8
100
AcDbSymbolTable
0
ENDTAB
0
TABLE
2
LTYPE
5
5
100
AcDbSymbolTable
0
LTYPE
5
14
100
AcDbSymbolTableRecord
100
AcDbLinetypeTableRecord
2
BYBLOCK
70
0
0
LTYPE
5
15
100
AcDbSymbolTableRecord
100
AcDbLinetypeTableRecord
2
BYLAYER
70
0
0
LTYPE
5
16
100
AcDbSymbolTableRecord
100
AcDbLinetypeTableRecord
2
DASHED
70
0
3
Dashed __ __ __ __ __ __ __ __ __ __ __ __ __ _
72
65
73
2
40
0.75
49
0.5
74
0
49
-0.25
74
0
0
ENDTAB
0
TABLE
2
LAYER
5
2
100
AcDbSymbolTable
70
3
0
LAYER
5
50
100
AcDbSymbolTableRecord
100
AcDbLayerTableRecord
2
1
70
0
62
7
6
DASHED
0
LAYER
5
51
100
AcDbSymbolTableRecord
100
AcDbLayerTableRecord
2
0
70
0
62
7
6
CONTINUOUS
0
ENDTAB
0
TABLE
2
STYLE
5
3
100
AcDbSymbolTable
70
1
0
STYLE
5
11
100
AcDbSymbolTableRecord
100
AcDbTextStyleTableRecord
2
STANDARD
70
0
0
ENDTAB
0
TABLE
2
VIEW
5
6
100
AcDbSymbolTable
70
0
0
ENDTAB
0
TABLE
2
UCS
5
7
100
AcDbSymbolTable
70
0
0
ENDTAB
0
TABLE
2
APPID
5
9
100
AcDbSymbolTable
70
2
0
APPID
5
12
100
AcDbSymbolTableRecord
100
AcDbRegAppTableRecord
2
ACAD
70
0
0
ENDTAB
0
TABLE
2
DIMSTYLE
5
A
100
AcDbSymbolTable
70
1
0
ENDTAB
0
TABLE
2
BLOCK_RECORD
5
1
100
AcDbSymbolTable
70
1
0
BLOCK_RECORD
5
1F
100
AcDbSymbolTableRecord
100
AcDbBlockTableRecord
2
*MODEL_SPACE
0
BLOCK_RECORD
5
1B
100
AcDbSymbolTableRecord
100
AcDbBlockTableRecord
2
*PAPER_SPACE
0
ENDTAB
0
ENDSEC
0
SECTION
2
BLOCKS
0
BLOCK
5
20
100
AcDbEntity
100
AcDbBlockBegin
2
*MODEL_SPACE
0
ENDBLK
5
21
100
AcDbEntity
100
AcDbBlockEnd
0
BLOCK
5
1C
100
AcDbEntity
100
AcDbBlockBegin
2
*PAPER_SPACE
0
ENDBLK
5
1D
100
AcDbEntity
100
AcDbBlockEnd
0
ENDSEC
0
SECTION
2
ENTITIES
0
LWPOLYLINE
5
100
100
AcDbEntity
8
0
100
AcDbPolyline
90
59
70
1
43
0.0
10
234.48078918457202
20
-120.12439308705062
42
0.41421356237313667
10
233.98078918457202
20
-120.62439308705063
10
233.98078918457202
20
-121.62439308705059
42
-0.41421356237310542
10
233.48078918457202
20
-122.12439308705061
10
204.48078918457202
20
-122.12439308705086
42
-0.41421356237309503
10
203.98078918457202
20
-121.62439308705086
10
203.98078918457205
20
-120.12439308705069
10
201.46930054796118
20
-120.12439308705068
42
0.26794919243111914
10
201.036287846069
20
-120.37439308705068
10
200.03054352776334
20
-122.11639334577983
42
0.4142135623731325
10
200.21355622965558
20
-122.79940604767205
10
201.07958163343969
20
-123.29940604767188
42
-0.41421356237309503
10
201.26259433533193
20
-123.98241874956409
10
186.76259433533215
20
-149.09715545931297
42
-0.41421356237311302
10
186.07958163343991
20
-149.28016816120521
10
185.21355622965561
20
-148.78016816120524
42
0.41421356237315432
10
184.53054352776337
20
-148.96318086309745
10
183.52479920945791
20
-150.70518112182626
42
0.2679491924310784
10
183.52479920945791
20
-151.20518112182629
10
184.53054352776337
20
-152.94718138055509
42
0.41421356237307183
10
185.21355622965558
20
-153.1301940824473
10
186.0795816334398
20
-152.63019408244747
42
-0.41421356237310408
10
186.76259433533201
20
-152.81320678433968
10
201.26259433533221
20
-177.92794349408825
42
-0.41421356237311302
10
201.07958163343997
20
-178.61095619598049
10
200.21355622965561
20
-179.11095619598044
42
0.4142135623730846
10
200.03054352776337
20
-179.79396889787267
10
201.03628784606909
20
-181.53596915660182
42
0.26794919243115212
10
201.46930054796127
20
-181.78596915660182
10
203.48078918457216
20
-181.78596915660182
42
0.41421356237315748
10
203.98078918457219
20
-181.28596915660182
10
203.98078918457216
20
-180.28596915660177
42
-0.41421356237309503
10
204.48078918457216
20
-179.78596915660177
10
233.48078918457216
20
-179.78596915660148
42
-0.41421356237309503
10
233.98078918457216
20
-180.28596915660148
10
233.98078918457216
20
-181.28596915660179
42
0.41421356237313667
10
234.48078918457213
20
-181.78596915660179
10
236.49227782118351
20
-181.78596915660179
42
0.26794919243113563
10
236.92529052307572
20
-181.53596915660177
10
237.93103484138129
20
-179.79396889787284
42
0.41421356237304857
10
237.74802213948908
20
-179.11095619598063
10
236.88199673570435
20
-178.61095619598049
42
-0.41421356237307699
10
236.69898403381214
20
-177.92794349408831
10
251.19898403381194
20
-152.81320678433946
42
-0.41421356237312346
10
251.88199673570421
20
-152.63019408244725
10
252.74802213948902
20
-153.13019408244747
42
0.41421356237312346
10
253.43103484138126
20
-152.94718138055529
10
254.43677915968689
20
-151.20518112182617
42
0.26794919243115711
10
254.43677915968689
20
-150.70518112182617
10
253.43103484138118
20
-148.96318086309705
42
0.41421356237314011
10
252.74802213948902
20
-148.78016816120484
10
251.88199673570435
20
-149.28016816120495
42
-0.41421356237310408
10
251.19898403381211
20
-149.09715545931275
10
236.69898403381188
20
-123.98241874956413
42
-0.41421356237311446
10
236.88199673570412
20
-123.29940604767189
10
237.748022139489
20
-122.79940604767165
42
0.41421356237311446
10
237.93103484138118
20
-122.11639334577944
10
236.92529052307572
20
-120.37439308705062
42
0.26794919243115345
10
236.49227782118351
20
-120.12439308705062
0
LWPOLYLINE
5
101
100
AcDbEntity
8
0
100
AcDbPolyline
90
4
70
1
43
0.0
10
231.48078918457199
20
-130.12439308705063
10
231.48078918457199
20
-133.12439308705063
10
206.48078918457202
20
-133.12439308705063
10
206.48078918457202
20
-130.12439308705063
0
LWPOLYLINE
5
102
100
AcDbEntity
8
0
100
AcDbPolyline
90
4
70
1
43
0.0
10
228.17270459218327
20
-170.69589268651941
10
240.67270459218327
20
-149.04525759190849
10
243.27078080353664
20
-150.54525759190847
10
230.77078080353664
20
-172.19589268651936
0
LWPOLYLINE
5
103
100
AcDbEntity
8
0
100
AcDbPolyline
90
4
70
1
43
0.0
10
197.28887377696086
20
-149.04525759190852
10
209.78887377696083
20
-170.69589268651947
10
207.19079756560748
20
-172.19589268651944
10
194.69079756560751
20
-150.54525759190852
0
LWPOLYLINE
5
104
100
AcDbEntity
8
0
100
AcDbPolyline
90
4
70
1
43
0.0
10
220.48078918457239
20
-148.95518112182623
42
0.33333333333333015
10
217.48078918457239
20
-148.9551811218262
10
217.48078918457239
20
-152.95518112182623
42
0.33333333333333287
10
220.48078918457236
20
-152.95518112182623
0
ENDSEC
0
SECTION
2
OBJECTS
0
DICTIONARY
5
C
100
AcDbDictionary
3
ACAD_GROUP
350
D
3
ACAD_MLINESTYLE
350
17
0
DICTIONARY
5
D
100
AcDbDictionary
0
DICTIONARY
5
1A
330
C
100
AcDbDictionary
0
DICTIONARY
5
17
100
AcDbDictionary
0
ENDSEC
0
EOF
